<?xml version="1.0" encoding="UTF-8"?>
<svg id="Layer_1" xmlns="http://www.w3.org/2000/svg" version="1.1" viewBox="0 0 633.04 109.91">
  <!-- Generator: Adobe Illustrator 30.1.0, SVG Export Plug-In . SVG Version: 2.1.1 Build 136)  -->
  <defs>
    <style>
      .st0 {
        fill: #6c0b1a;
      }

      .st1 {
        fill: #231f20;
      }
    </style>
  </defs>
  <path class="st0" d="M163.75,41.54c-2.05-3.6-4.84-6.35-8.37-8.28-3.53-1.92-7.54-2.89-12.01-2.89s-8.5.98-12.06,2.93c-3.56,1.96-6.37,4.73-8.42,8.33-2.05,3.59-3.08,7.85-3.08,12.77s.96,9.21,2.89,12.87c1.92,3.66,4.65,6.48,8.18,8.47,3.53,1.99,7.69,2.98,12.49,2.98s8.94-.99,12.44-2.98c3.5-1.99,6.21-4.79,8.14-8.42,1.92-3.63,2.88-7.93,2.88-12.91s-1.03-9.27-3.07-12.87ZM144.21,65.76c-.12.26-.38.41-.64.36-.24-.05-.44-.31-.45-.59,0-.16.01-.32.06-.48.07-.26.17-.51.27-.76.03-.07.07-.14.12-.2.17-.19.4-.16.52.06.03.06.06.13.08.21.06.32.1.64.13.94,0,.17-.02.32-.08.46ZM147.66,64.05c-.21.48-.54.8-1.05.88-.13.02-.26,0-.36-.1-.09-.07-.11-.18-.11-.29.05-.33.1-.67.16-1,.07-.4.06-.78-.17-1.12-.06-.08-.09-.18-.11-.28-.02-.11-.01-.22.09-.3.1-.08.2-.05.29.01.16.11.3.25.43.39.32.35.61.71.81,1.15.1.22.11.44.02.65ZM149.16,62.32c-.17.11-.35.08-.48-.08-.09-.12-.14-.26-.2-.39-.08-.15-.13-.16-.23-.02-.1.13-.18.27-.27.4-.06.08-.13.12-.22.08-.09-.04-.09-.12-.09-.21.08-.36.16-.72.42-1,.19-.2.44-.23.67-.08.21.13.41.27.55.49.2.31.15.63-.13.81ZM154.42,68.42c-.19.1-.34.02-.37-.21-.02-.13-.02-.27-.03-.41,0-.12-.03-.14-.14-.08-.36.17-.5.11-.65-.28-.07-.2-.11-.21-.28-.09-.1.08-.21.16-.32.23-.28.19-.39.65-.24,1.01.1.24.21.47.33.69.16.28.3.58.34.91,0,.04.01.09,0,.14-.02.19-.15.27-.32.2-.11-.05-.19-.13-.26-.22-.18-.21-.29-.47-.47-.67-.13-.16-.26-.31-.38-.48-.15-.22-.22-.46-.18-.73.05-.4-.14-.69-.4-.94-.12-.12-.25-.23-.4-.32-.2-.12-.27-.33-.29-.56-.03-.35.04-.68.19-.98.22-.44.2-.87.07-1.32-.13-.46-.32-.89-.45-1.35-.11-.39-.23-.78-.4-1.15-.33-.76-.9-1.27-1.59-1.63-.11-.06-.23-.09-.36-.09-.11,0-.18.05-.24.15-.03.05-.04.09,0,.14.33.44.12.91-.16,1.22-.09.1-.18.18-.29.25-.1.07-.2.07-.3.01-.13-.08-.25-.19-.35-.3-.55-.6-1.09-1.21-1.63-1.81-.06-.06-.12-.13-.18-.19.04.26.16.47.27.69.2.4.41.8.61,1.19.32.63.32,1.29.13,1.95-.1.36-.26.69-.53.95-.15.14-.31.26-.52.29-.17.03-.29-.05-.33-.23-.06-.3,0-.59.08-.88.05-.21.15-.39.26-.61-.16.1-.27.2-.38.3-.25.25-.5.51-.74.77-.31.33-.49.73-.59,1.18,0,.02-.01.04-.01.06-.1.45-.34.58-.74.4-.19-.09-.37-.19-.52-.34-.18-.17-.18-.32-.04-.53.03-.05.12-.11.07-.16-.05-.04-.09.06-.13.11-.15.19-.29.18-.38-.05-.11-.28-.14-.59-.17-.89-.04-.29-.05-.59-.05-.89,0-.06,0-.13-.04-.2-.07.14-.09.26-.1.4-.01.32.05.64.08.96.04.33.07.67-.03.99-.1.34-.34.51-.67.48-.02,0-.05,0-.07,0-.1,0-.13.04-.09.14.02.05.04.09.06.13.06.17.03.3-.11.4-.18.12-.37.16-.56.06-.18-.09-.22-.28-.22-.47,0-.39,0-.77,0-1.16,0-.01,0-.03-.02-.04-.08.23-.09.47-.09.71,0,.11,0,.22-.01.33-.02.22-.15.37-.33.46-.23.12-.43,0-.46-.28-.01-.13-.02-.27-.05-.42-.07.09-.06.19-.07.29-.02.18,0,.37-.02.56-.03.23-.1.34-.23.36-.13.02-.24-.08-.31-.3-.07-.23-.13-.47-.2-.7-.03-.1-.07-.19-.14-.27-.03-.04-.08-.07-.12-.03-.05.04-.03.1-.01.15.03.06.08.1.12.14.11.09.19.2.21.36.03.22-.1.37-.31.35-.29-.03-.48-.19-.56-.49-.09-.32-.09-.66-.03-.98.21-1.16.11-2.3-.27-3.41-.13-.38-.13-.76-.04-1.15.05-.21.01-.42-.11-.6-.02-.03-.04-.07-.06-.1-.19-.27-.19-.56-.08-.87.07-.19.18-.36.29-.53.05-.08.14-.17.08-.26-.05-.09-.17-.05-.26-.04-.13,0-.26.03-.38.03-.46,0-.75-.48-.55-.93.05-.12.12-.23.18-.35.09-.18.06-.28-.1-.38-.08-.05-.17-.1-.26-.14-.56-.3-.76-1.01-.44-1.59.16-.28.36-.52.49-.82.15-.33.25-.68.22-1.05-.03-.36-.18-.61-.52-.73-.47-.16-.93-.33-1.38-.53-.33-.15-.59-.38-.78-.69-.18-.29-.39-.54-.65-.76-.23-.18-.24-.4-.04-.62.1-.11.22-.21.33-.32.18-.19.24-.34.12-.58-.06-.12-.07-.26.02-.37.1-.13.23-.17.37-.14.2.04.35.16.49.31.19.21.31.17.39-.1.11-.38.17-.77.14-1.17-.03-.32.16-.5.46-.48.23.01.45.1.66.19.31.13.63.19.97.09.2-.06.36-.19.46-.38.08-.15.06-.22-.1-.27-.12-.04-.23-.07-.34-.13-.23-.14-.32-.35-.28-.62.02-.11.09-.25,0-.31-.07-.05-.17.06-.26.11-.49.27-.9.15-1.27-.37-.16-.23-.31-.47-.47-.71-.2-.3-.46-.49-.82-.49-.08,0-.17-.01-.25-.03-.38-.09-.54-.4-.43-.82.05-.18.14-.35.24-.51.12-.2.18-.41.17-.64-.01-.23.06-.33.27-.4.08-.03.16-.05.25-.07.11-.03.19-.09.22-.2.07-.36.3-.52.63-.59.26-.06.29-.16.12-.38-.12-.15-.26-.23-.46-.22-.26.02-.36-.11-.3-.38.05-.23.15-.43.31-.6.06-.07.13-.13.23-.1.1.03.13.12.16.21,0,.03.02.06.02.1-.01.25.13.39.3.53.22.18.47.32.69.51.19.17.34.37.54.53.15.13.32.22.5.27.09.03.12,0,.1-.09-.03-.16-.08-.31-.1-.47-.03-.25.06-.45.25-.59.17-.13.35-.08.51.03.11.07.21.17.29.28.17.23.27.5.26.79-.02.41.18.68.48.89.34.24.7.42,1.09.54.06.02.12.02.18.02.18,0,.26-.07.32-.25.04-.15.05-.32.07-.48.01-.13.03-.25.07-.37.07-.18.18-.25.36-.24.21.01.36.14.48.31.25.32.35.7.37,1.11.02.38-.03.75-.08,1.12-.06.55-.08,1.09-.01,1.64.07.62.37,1.06.9,1.34.6.32,1.24.47,1.9.52.92.07,1.83-.04,2.74-.17,1.09-.16,2.18-.28,3.28-.23.97.05,1.92.18,2.86.47.32.1.6.27.81.55.08.12.14.24.18.38.06.2,0,.4-.17.52-.16.13-.35.13-.52.02-.1-.07-.18-.18-.28-.26-.1-.1-.15-.08-.2.06-.04.11-.02.21.06.3.22.23.22.48.1.76-.11.25-.11.52-.15.78-.05.36-.24.64-.47.89-.1.11-.24.12-.37.11-.26-.02-.4.13-.48.36-.06.15-.09.3-.08.47,0,.12,0,.25-.02.37-.04.18-.12.25-.3.24-.15,0-.28-.08-.42-.14-.11-.05-.21-.1-.33-.11-.16-.02-.19,0-.26.16-.04.09-.07.17-.12.26-.11.21-.28.29-.5.22-.09-.03-.17-.07-.25-.11-.08-.03-.15-.07-.23-.1-.16-.05-.23.02-.19.19.02.09.05.18.06.28.03.23-.1.37-.31.33-.02,0-.04,0-.06-.01-.23-.04-.3,0-.3.26,0,.49-.11.94-.36,1.36-.14.23-.13.37.04.57.4.49.6,1.07.68,1.7.03.23.04.46.06.69.02.18.08.26.25.3-.06-.21-.13-.41-.12-.62,0-.14.04-.27.1-.39.04-.09.1-.17.21-.16.11,0,.15.1.18.18.07.19.1.39.15.58.04.2.09.4.17.59.04.09.08.18.14.25.11.13.24.19.4.12.35-.14.61-.37.71-.77.04-.15.01-.29-.05-.42-.05-.1-.11-.2-.15-.31-.12-.27-.06-.52.17-.68.24-.16.46-.33.59-.62.1-.22.16-.44.1-.69-.03-.12-.04-.24-.02-.35.03-.17.16-.26.32-.23.18.04.33-.03.48-.11.12-.06.24-.12.37-.15.21-.04.38.03.5.21.14.22.23.48.32.72.21.58.34,1.18.26,1.81-.01.12-.03.25-.06.36-.09.37-.04.73.11,1.07.32.68.57,1.4.79,2.12.2.66.29,1.35.32,2.04.05.9.08,1.8.2,2.7.07.53.22,1.03.36,1.54.07.24.13.48.08.73-.04.27-.19.46-.41.58Z"/>
  <path class="st1" d="M14.4,77.33v-.95l1.9-.67c1.27-.38,2.1-.95,2.52-1.71.41-.76.62-1.77.62-3.04V21.18c0-1.27-.22-2.28-.67-3.04-.44-.76-1.3-1.36-2.57-1.81l-1.8-.76v-.95h23.08c9.44,0,16.26,1.73,20.47,5.18,4.21,3.45,6.32,8,6.32,13.63,0,3.61-.87,6.92-2.61,9.93-1.74,3.01-4.61,5.4-8.6,7.17-3.99,1.77-9.37,2.66-16.15,2.66h-3.23v17.48c0,2.47,1.24,4.08,3.71,4.85l2.85.85v.95H14.4ZM33.69,51.3h3.61c3.1,0,5.64-.51,7.6-1.52,1.96-1.01,3.42-2.79,4.37-5.32.95-2.53,1.42-6.05,1.42-10.54s-.52-8.11-1.57-10.64c-1.04-2.53-2.58-4.29-4.61-5.27-2.03-.98-4.56-1.47-7.6-1.47h-3.23v34.77Z"/>
  <path class="st1" d="M65.8,77.33v-.95l1.14-.38c2.28-.76,3.42-2.34,3.42-4.75V20.52c0-1.33-.22-2.31-.67-2.95-.44-.63-1.3-1.11-2.57-1.42l-1.42-.38v-.95l16.72-4.08,1.52.85-.38,13.4v11.88c2.22-1.84,4.61-3.4,7.17-4.7,2.57-1.3,5.4-1.95,8.5-1.95,4.12,0,7.39,1.17,9.83,3.51,2.44,2.34,3.66,5.95,3.66,10.83v26.79c0,1.27.25,2.28.76,3.04.51.76,1.39,1.33,2.66,1.71l.76.29v.95h-22.23v-.95l1.14-.29c2.28-.76,3.42-2.38,3.42-4.84v-29.83c0-2.53-.43-4.27-1.28-5.22-.86-.95-2.36-1.42-4.51-1.42-1.39,0-2.91.27-4.56.81-1.65.54-3.32,1.47-5.03,2.8v33.06c0,2.47,1.14,4.05,3.42,4.75l.76.19v.95h-22.23Z"/>
  <path class="st1" d="M187.4,78.75c-4.05,0-7.21-1.01-9.45-3.04s-3.37-5.26-3.37-9.69v-32.49h-6.55v-.95l2.28-.38c1.96-.44,3.66-1.08,5.08-1.9,1.42-.82,2.83-1.93,4.23-3.32l7.79-8.65h.95l-.29,13.3h10.64v1.9h-10.74v34.2c0,2.22.49,3.89,1.47,5.04.98,1.14,2.23,1.71,3.75,1.71,1.33,0,2.5-.33,3.51-1,1.01-.67,2.03-1.57,3.04-2.71l.95.95c-1.27,2.15-3.01,3.86-5.22,5.13-2.22,1.27-4.91,1.9-8.08,1.9Z"/>
  <path class="st1" d="M226.06,78.75c-4.81,0-8.99-1-12.54-2.99s-6.29-4.83-8.22-8.5c-1.93-3.67-2.9-7.98-2.9-12.92s1.03-9.21,3.09-12.83c2.06-3.61,4.88-6.4,8.46-8.36,3.58-1.96,7.62-2.95,12.11-2.95s8.52.97,12.07,2.9c3.55,1.93,6.35,4.7,8.41,8.31,2.06,3.61,3.09,7.92,3.09,12.92s-.97,9.33-2.9,12.97c-1.93,3.64-4.66,6.46-8.17,8.46-3.52,2-7.68,2.99-12.49,2.99ZM226.06,76.85c2.22,0,3.99-.63,5.32-1.9,1.33-1.27,2.29-3.51,2.9-6.75.6-3.23.9-7.79.9-13.68s-.3-10.54-.9-13.78c-.6-3.23-1.57-5.48-2.9-6.75-1.33-1.27-3.1-1.9-5.32-1.9s-4.01.63-5.37,1.9c-1.36,1.27-2.34,3.52-2.95,6.75-.6,3.23-.9,7.82-.9,13.78s.3,10.45.9,13.68c.6,3.23,1.58,5.48,2.95,6.75,1.36,1.27,3.15,1.9,5.37,1.9Z"/>
  <path class="st1" d="M273.18,60.89c-4.37,0-8.08-.73-11.12-2.19v3.23c0,1.96.98,3.13,2.95,3.51l17.86,3.33c2.98.57,5.67,1.32,8.08,2.23,2.41.92,4.34,2.22,5.79,3.89,1.46,1.68,2.19,3.97,2.19,6.89,0,3.1-1.01,5.97-3.04,8.6-2.03,2.63-5.02,4.75-8.98,6.37-3.96,1.62-8.88,2.42-14.77,2.42-5.07,0-9.09-.52-12.07-1.57-2.98-1.04-5.08-2.39-6.32-4.04-1.24-1.65-1.85-3.39-1.85-5.23,0-2.28.77-4.58,2.33-6.89,1.55-2.31,3.47-4.16,5.75-5.56-1.96-.76-3.39-1.74-4.28-2.95-.89-1.2-1.33-2.5-1.33-3.89,0-1.27.33-2.45,1-3.56.67-1.11,1.47-2.23,2.42-3.37l3.14-3.99c-4.62-2.66-6.94-6.84-6.94-12.54,0-4.56,1.63-8.26,4.89-11.11,3.26-2.85,8.06-4.28,14.39-4.28,3.23,0,6.06.38,8.5,1.14,2.44.76,4.45,1.84,6.03,3.23,2.03-.32,3.94-.84,5.75-1.57,1.81-.73,3.43-1.72,4.89-2.99l1.33.95v4.85h-10.74c2.28,2.53,3.42,5.79,3.42,9.78,0,4.43-1.63,8.09-4.89,10.97-3.26,2.88-8.06,4.32-14.39,4.32ZM258.93,85.31c0,3.74,1.15,6.55,3.47,8.45,2.31,1.9,5.97,2.85,10.97,2.85,5.26,0,9.21-.86,11.88-2.57s3.99-4.12,3.99-7.22c0-1.77-.65-3.2-1.95-4.28-1.3-1.08-3.5-1.9-6.6-2.47l-17.2-3.23c-.51-.13-1.01-.25-1.52-.38-.89,1.27-1.62,2.71-2.19,4.32-.57,1.61-.85,3.12-.85,4.51ZM273.09,58.99c2.53,0,4.38-1.04,5.56-3.13,1.17-2.09,1.76-5.57,1.76-10.45s-.59-8.31-1.76-10.31c-1.17-2-2.96-2.99-5.37-2.99s-4.12,1.03-5.32,3.09c-1.2,2.06-1.8,5.53-1.8,10.4s.55,8.33,1.66,10.36c1.11,2.03,2.87,3.04,5.27,3.04Z"/>
  <path class="st1" d="M301.59,77.33v-.95l1.42-.38c1.27-.38,2.14-.95,2.61-1.71s.71-1.74.71-2.95v-29.73c0-1.39-.24-2.42-.71-3.09s-1.35-1.12-2.61-1.38l-1.42-.38v-.95l16.34-5.51.95.95.85,8.17v.76c.89-1.77,2.04-3.4,3.47-4.89,1.42-1.49,3.01-2.71,4.75-3.66,1.74-.95,3.47-1.42,5.18-1.42,2.41,0,4.24.67,5.51,2,1.27,1.33,1.9,3.01,1.9,5.04,0,2.15-.62,3.82-1.85,4.99-1.23,1.17-2.71,1.76-4.42,1.76-2.66,0-5-1.33-7.03-3.99l-.19-.19c-.63-.89-1.36-1.38-2.19-1.47-.82-.1-1.58.3-2.28,1.19-.63.57-1.16,1.25-1.57,2.04-.41.79-.81,1.7-1.19,2.71v26.5c0,2.53,1.11,4.12,3.33,4.75l3.04.85v.95h-24.6Z"/>
  <path class="st1" d="M354.03,78.75c-3.67,0-6.76-1.04-9.26-3.13-2.5-2.09-3.75-5.1-3.75-9.03,0-2.98,1.52-5.71,4.56-8.22s7.82-4.38,14.34-5.65c1.01-.19,2.15-.39,3.42-.62,1.27-.22,2.6-.46,3.99-.71v-7.51c0-4.31-.52-7.33-1.57-9.07-1.05-1.74-2.68-2.61-4.89-2.61-1.52,0-2.72.49-3.61,1.47-.89.98-1.46,2.68-1.71,5.08l-.19,1.04c-.13,2.72-.79,4.72-1.99,5.99-1.2,1.27-2.69,1.9-4.47,1.9-1.65,0-3.01-.51-4.08-1.52-1.08-1.01-1.61-2.38-1.61-4.08,0-2.6.9-4.78,2.71-6.55,1.8-1.77,4.2-3.1,7.17-3.99,2.98-.89,6.21-1.33,9.69-1.33,5.64,0,9.99,1.38,13.06,4.13,3.07,2.75,4.61,7.24,4.61,13.44v21c0,2.85,1.33,4.27,3.99,4.27h2.09l.86.76c-1.2,1.52-2.52,2.69-3.94,3.51-1.43.82-3.44,1.24-6.03,1.24-2.79,0-4.99-.65-6.6-1.95-1.61-1.3-2.68-3.02-3.18-5.18-1.9,2.03-3.85,3.75-5.84,5.18-2,1.43-4.58,2.14-7.74,2.14ZM359.83,72.96c1.27,0,2.45-.3,3.56-.9,1.11-.6,2.42-1.54,3.94-2.8v-15.96c-.63.13-1.27.25-1.9.38-.63.13-1.36.25-2.18.38-2.91.76-5.24,2.04-6.98,3.85-1.74,1.81-2.61,4.23-2.61,7.27,0,2.6.6,4.54,1.81,5.84,1.2,1.3,2.66,1.95,4.37,1.95Z"/>
  <path class="st1" d="M386.14,99.18v-.95l1.14-.38c2.34-.63,3.51-2.15,3.51-4.56v-51.68c0-1.39-.24-2.44-.71-3.14-.48-.7-1.35-1.17-2.61-1.42l-1.33-.29v-.95l16.15-5.51.95.95.86,2.95c2.09-1.27,4.42-2.25,6.98-2.95,2.56-.7,5.21-1.04,7.93-1.04,5.45,0,9.77,2.08,12.97,6.22,3.2,4.15,4.8,10.09,4.8,17.81s-1.76,13.58-5.27,17.96c-3.52,4.37-8.47,6.55-14.87,6.55-5,0-9.21-.73-12.63-2.18v16.43c0,2.53,1.14,4.12,3.42,4.75l1.81.48v.95h-23.08ZM412.07,76c3.17,0,5.68-1.65,7.55-4.94,1.87-3.29,2.8-8.77,2.8-16.44s-.89-13.03-2.66-16.1c-1.77-3.07-4.34-4.61-7.7-4.61-2.34,0-4.94.76-7.79,2.28v38.29c2.41,1.01,5,1.52,7.79,1.52Z"/>
  <path class="st1" d="M439.62,77.33v-.95l1.14-.38c2.28-.76,3.42-2.34,3.42-4.75V20.52c0-1.33-.22-2.31-.67-2.95-.44-.63-1.3-1.11-2.57-1.42l-1.42-.38v-.95l16.72-4.08,1.52.85-.38,13.4v11.88c2.22-1.84,4.61-3.4,7.17-4.7,2.57-1.3,5.4-1.95,8.5-1.95,4.12,0,7.39,1.17,9.83,3.51,2.44,2.34,3.66,5.95,3.66,10.83v26.79c0,1.27.25,2.28.76,3.04.51.76,1.39,1.33,2.66,1.71l.76.29v.95h-22.23v-.95l1.14-.29c2.28-.76,3.42-2.38,3.42-4.84v-29.83c0-2.53-.43-4.27-1.28-5.22-.86-.95-2.36-1.42-4.51-1.42-1.39,0-2.91.27-4.56.81-1.65.54-3.32,1.47-5.03,2.8v33.06c0,2.47,1.14,4.05,3.42,4.75l.76.19v.95h-22.23Z"/>
  <path class="st1" d="M516.95,30.21c4.12,0,7.63.84,10.54,2.52,2.91,1.68,5.14,3.96,6.7,6.84,1.55,2.88,2.33,6.16,2.33,9.83,0,.7-.03,1.41-.1,2.14-.06.73-.19,1.38-.38,1.95h-28.31c.06,6.84,1.28,11.76,3.66,14.77,2.38,3.01,5.91,4.51,10.59,4.51,3.17,0,5.73-.51,7.69-1.52,1.96-1.01,3.8-2.5,5.51-4.46l.95.85c-1.96,3.48-4.58,6.21-7.84,8.17-3.26,1.96-7.17,2.94-11.73,2.94s-8.49-.97-11.97-2.9c-3.48-1.93-6.21-4.7-8.17-8.31-1.96-3.61-2.94-7.92-2.94-12.92s1.14-9.61,3.42-13.25c2.28-3.64,5.21-6.41,8.79-8.31,3.58-1.9,7.33-2.85,11.26-2.85ZM516.67,32.11c-1.84,0-3.41.55-4.7,1.66-1.3,1.11-2.31,3.07-3.04,5.89-.73,2.82-1.12,6.79-1.19,11.92h16.25c.63-6.9.38-11.88-.76-14.92-1.14-3.04-3.32-4.56-6.55-4.56Z"/>
  <path class="st1" d="M539.94,77.33v-.95l1.42-.38c1.27-.38,2.14-.95,2.61-1.71s.71-1.74.71-2.95v-29.73c0-1.39-.24-2.42-.71-3.09s-1.35-1.12-2.61-1.38l-1.42-.38v-.95l16.34-5.51.95.95.85,8.17v.76c.89-1.77,2.04-3.4,3.47-4.89,1.42-1.49,3.01-2.71,4.75-3.66,1.74-.95,3.47-1.42,5.18-1.42,2.41,0,4.24.67,5.51,2,1.27,1.33,1.9,3.01,1.9,5.04,0,2.15-.62,3.82-1.85,4.99-1.23,1.17-2.71,1.76-4.42,1.76-2.66,0-5-1.33-7.03-3.99l-.19-.19c-.63-.89-1.36-1.38-2.19-1.47-.82-.1-1.58.3-2.28,1.19-.63.57-1.16,1.25-1.57,2.04-.41.79-.81,1.7-1.19,2.71v26.5c0,2.53,1.11,4.12,3.33,4.75l3.04.85v.95h-24.6Z"/>
  <path class="st1" d="M595.99,78.75c-3.1,0-5.89-.37-8.36-1.09-2.47-.73-4.75-1.63-6.84-2.71l.1-11.3h.95l3.23,5.7c1.39,2.53,2.93,4.42,4.61,5.65,1.68,1.23,3.81,1.85,6.41,1.85,3.04,0,5.49-.68,7.36-2.04,1.87-1.36,2.8-3.18,2.8-5.46,0-2.09-.67-3.8-2-5.13s-3.8-2.53-7.41-3.61l-3.99-1.24c-3.86-1.14-6.9-2.91-9.12-5.32-2.22-2.41-3.33-5.35-3.33-8.83,0-4.18,1.65-7.73,4.94-10.64,3.29-2.91,8.01-4.37,14.15-4.37,2.47,0,4.8.27,6.98.81,2.19.54,4.29,1.35,6.32,2.42l-.57,10.26h-.95l-3.33-5.89c-1.2-2.09-2.39-3.56-3.56-4.42s-2.93-1.28-5.27-1.28c-2.15,0-4.18.6-6.08,1.8-1.9,1.2-2.85,2.91-2.85,5.13s.81,3.86,2.42,5.13c1.61,1.27,4,2.44,7.17,3.52l4.28,1.23c4.56,1.39,7.82,3.31,9.79,5.75,1.96,2.44,2.94,5.37,2.94,8.79,0,4.62-1.82,8.33-5.46,11.12-3.64,2.79-8.76,4.18-15.34,4.18Z"/>
  <g>
    <path class="st1" d="M473.24,91.54h-3.04l-.56,1.55h-.96l2.52-6.93h1.05l2.51,6.93h-.96l-.56-1.55ZM472.98,90.8l-1.26-3.52-1.26,3.52h2.52Z"/>
    <path class="st1" d="M475.86,88.85c.23-.42.54-.75.95-.98s.87-.35,1.38-.35c.67,0,1.23.16,1.67.49.44.33.73.78.87,1.36h-.98c-.09-.33-.28-.6-.54-.79-.27-.19-.61-.29-1.01-.29-.52,0-.94.18-1.26.54s-.48.86-.48,1.51.16,1.17.48,1.53c.32.36.74.54,1.26.54.4,0,.73-.09,1-.28s.45-.45.55-.8h.98c-.15.56-.44,1.01-.88,1.34s-.99.5-1.65.5c-.52,0-.98-.12-1.38-.35s-.72-.56-.95-.99-.34-.93-.34-1.5.11-1.06.34-1.49Z"/>
    <path class="st1" d="M483.52,87.77c.3-.17.66-.26,1.08-.26v.94h-.24c-1.02,0-1.53.55-1.53,1.66v2.98h-.91v-5.48h.91v.89c.16-.31.39-.56.69-.73Z"/>
    <path class="st1" d="M486.65,92.83c-.42-.23-.74-.57-.98-1-.24-.43-.36-.93-.36-1.5s.12-1.05.37-1.49c.24-.43.58-.76,1-.99.42-.23.89-.35,1.41-.35s.99.12,1.41.35c.42.23.75.56,1,.98.24.43.36.92.36,1.49s-.12,1.07-.38,1.5-.59.76-1.01,1-.9.35-1.42.35-.98-.12-1.4-.35ZM488.97,92.15c.29-.15.52-.38.7-.69.18-.31.26-.68.26-1.12s-.09-.81-.26-1.12c-.17-.31-.4-.54-.68-.68-.28-.15-.58-.23-.91-.23s-.64.08-.92.23c-.28.15-.5.38-.67.68-.17.31-.25.68-.25,1.12s.08.82.25,1.13c.16.31.38.54.65.69.27.15.57.22.9.22s.63-.08.92-.23Z"/>
    <path class="st1" d="M492.87,92.96c-.33-.14-.6-.34-.79-.6-.19-.26-.3-.55-.32-.89h.94c.03.27.16.5.38.67.23.17.53.26.91.26.35,0,.62-.08.82-.23.2-.15.3-.35.3-.58s-.11-.42-.32-.54c-.21-.12-.54-.23-.99-.34-.41-.11-.74-.21-1-.33-.26-.11-.48-.27-.66-.49-.18-.22-.28-.5-.28-.86,0-.28.08-.54.25-.77.17-.23.4-.42.71-.56s.66-.21,1.05-.21c.61,0,1.1.15,1.47.46.37.31.57.73.6,1.26h-.91c-.02-.29-.13-.52-.34-.69-.21-.17-.49-.26-.85-.26-.33,0-.59.07-.78.21-.19.14-.29.32-.29.55,0,.18.06.33.17.45s.26.21.44.28c.18.07.42.15.73.24.39.11.71.21.96.32.25.1.46.26.63.46.18.21.27.48.28.81,0,.3-.08.57-.25.81-.17.24-.4.43-.71.56s-.65.21-1.04.21c-.42,0-.8-.07-1.13-.21Z"/>
    <path class="st1" d="M498.09,92.96c-.33-.14-.6-.34-.79-.6-.19-.26-.3-.55-.32-.89h.94c.03.27.16.5.38.67.23.17.53.26.91.26.35,0,.62-.08.82-.23.2-.15.3-.35.3-.58s-.11-.42-.32-.54c-.21-.12-.54-.23-.99-.34-.41-.11-.74-.21-1-.33-.26-.11-.48-.27-.66-.49-.18-.22-.28-.5-.28-.86,0-.28.08-.54.25-.77.17-.23.4-.42.71-.56s.66-.21,1.05-.21c.61,0,1.1.15,1.47.46.37.31.57.73.6,1.26h-.91c-.02-.29-.13-.52-.34-.69-.21-.17-.49-.26-.85-.26-.33,0-.59.07-.78.21-.19.14-.29.32-.29.55,0,.18.06.33.17.45s.26.21.44.28c.18.07.42.15.73.24.39.11.71.21.96.32.25.1.46.26.63.46.18.21.27.48.28.81,0,.3-.08.57-.25.81-.17.24-.4.43-.71.56s-.65.21-1.04.21c-.42,0-.8-.07-1.13-.21Z"/>
    <path class="st1" d="M506.14,92.91c-.36-.16-.65-.39-.86-.68-.21-.29-.31-.62-.32-1h.97c.03.33.17.6.41.83.24.22.58.33,1.04.33s.77-.11,1.02-.33c.25-.22.38-.49.38-.83,0-.27-.07-.48-.22-.65-.15-.17-.33-.29-.55-.38-.22-.09-.52-.18-.89-.28-.46-.12-.83-.24-1.1-.36-.28-.12-.51-.31-.71-.56-.2-.26-.29-.6-.29-1.04,0-.38.1-.72.29-1.01.19-.29.46-.52.81-.68.35-.16.75-.24,1.21-.24.65,0,1.19.16,1.61.49.42.33.65.76.71,1.3h-1c-.03-.27-.17-.5-.42-.71-.25-.2-.57-.31-.98-.31-.38,0-.69.1-.93.29-.24.2-.36.47-.36.83,0,.25.07.46.21.62s.32.28.53.37.5.18.88.29c.46.13.83.25,1.11.38.28.12.52.31.72.57.2.26.3.61.3,1.04,0,.34-.09.66-.27.96-.18.3-.45.54-.8.73-.35.19-.77.28-1.25.28s-.87-.08-1.24-.25Z"/>
    <path class="st1" d="M512.03,92.83c-.42-.23-.74-.57-.98-1-.24-.43-.36-.93-.36-1.5s.12-1.05.37-1.49c.24-.43.58-.76,1-.99.42-.23.89-.35,1.41-.35s.99.12,1.41.35c.42.23.75.56,1,.98.24.43.36.92.36,1.49s-.12,1.07-.38,1.5-.59.76-1.01,1-.9.35-1.42.35-.98-.12-1.4-.35ZM514.35,92.15c.29-.15.52-.38.7-.69.18-.31.26-.68.26-1.12s-.09-.81-.26-1.12c-.17-.31-.4-.54-.68-.68-.28-.15-.58-.23-.91-.23s-.64.08-.92.23c-.28.15-.5.38-.67.68-.17.31-.25.68-.25,1.12s.08.82.25,1.13c.16.31.38.54.65.69.27.15.57.22.9.22s.63-.08.92-.23Z"/>
    <path class="st1" d="M525.17,87.77c.33.18.6.44.79.8.19.35.29.78.29,1.29v3.23h-.9v-3.1c0-.55-.13-.97-.4-1.26-.27-.29-.64-.43-1.1-.43s-.85.15-1.13.46-.42.74-.42,1.32v3.02h-.9v-3.1c0-.55-.14-.97-.41-1.26-.27-.29-.63-.43-1.09-.43s-.85.15-1.13.46c-.28.3-.42.74-.42,1.32v3.02h-.91v-5.48h.91v.79c.18-.29.42-.51.73-.66.3-.15.64-.23,1-.23.46,0,.87.1,1.22.31.35.21.62.51.79.91.15-.39.41-.69.76-.9.35-.21.75-.32,1.18-.32s.81.09,1.14.26Z"/>
    <path class="st1" d="M528.73,92.83c-.42-.23-.74-.57-.98-1-.24-.43-.36-.93-.36-1.5s.12-1.05.37-1.49c.24-.43.58-.76,1-.99.42-.23.89-.35,1.41-.35s.99.12,1.41.35c.42.23.75.56,1,.98.24.43.36.92.36,1.49s-.12,1.07-.38,1.5-.59.76-1.01,1-.9.35-1.42.35-.98-.12-1.4-.35ZM531.05,92.15c.29-.15.52-.38.7-.69.18-.31.26-.68.26-1.12s-.09-.81-.26-1.12c-.17-.31-.4-.54-.68-.68-.28-.15-.58-.23-.91-.23s-.64.08-.92.23c-.28.15-.5.38-.67.68-.17.31-.25.68-.25,1.12s.08.82.25,1.13c.16.31.38.54.65.69.27.15.57.22.9.22s.63-.08.92-.23Z"/>
    <path class="st1" d="M537.64,87.83c.36.21.62.47.79.78v-1h.92v5.6c0,.5-.11.95-.32,1.33s-.52.7-.92.92-.86.33-1.38.33c-.72,0-1.32-.17-1.8-.51-.48-.34-.76-.8-.85-1.39h.9c.1.33.31.6.62.81.31.2.69.3,1.13.3.5,0,.91-.16,1.22-.47.32-.31.48-.75.48-1.32v-1.15c-.18.32-.45.59-.8.8-.35.21-.77.32-1.24.32s-.93-.12-1.33-.36c-.4-.24-.71-.58-.94-1.01-.23-.43-.34-.93-.34-1.48s.11-1.05.34-1.48c.23-.42.54-.75.94-.98s.84-.35,1.33-.35.89.1,1.25.31ZM538.19,89.26c-.17-.31-.39-.54-.68-.71-.28-.16-.59-.25-.93-.25s-.65.08-.93.24c-.28.16-.5.39-.67.7-.17.31-.25.67-.25,1.08s.08.79.25,1.09c.17.31.39.55.67.71.28.16.59.25.93.25s.65-.08.93-.25c.28-.16.51-.4.68-.71.17-.31.25-.67.25-1.08s-.08-.77-.25-1.08Z"/>
    <path class="st1" d="M542.49,87.77c.3-.17.66-.26,1.08-.26v.94h-.24c-1.02,0-1.53.55-1.53,1.66v2.98h-.91v-5.48h.91v.89c.16-.31.39-.56.69-.73Z"/>
    <path class="st1" d="M545.62,92.83c-.42-.23-.74-.57-.98-1-.24-.43-.36-.93-.36-1.5s.12-1.05.37-1.49c.24-.43.58-.76,1-.99.42-.23.89-.35,1.41-.35s.99.12,1.41.35c.42.23.75.56,1,.98.24.43.36.92.36,1.49s-.12,1.07-.38,1.5-.59.76-1.01,1-.9.35-1.42.35-.98-.12-1.4-.35ZM547.94,92.15c.29-.15.52-.38.7-.69.18-.31.26-.68.26-1.12s-.09-.81-.26-1.12c-.17-.31-.4-.54-.68-.68-.28-.15-.58-.23-.91-.23s-.64.08-.92.23c-.28.15-.5.38-.67.68-.17.31-.25.68-.25,1.12s.08.82.25,1.13c.16.31.38.54.65.69.27.15.57.22.9.22s.63-.08.92-.23Z"/>
    <path class="st1" d="M557.88,89.81c.21.17.38.37.5.62.12.25.18.51.18.79,0,.35-.09.67-.27.96s-.44.51-.79.67-.75.25-1.21.25h-2.6v-6.97h2.5c.47,0,.88.08,1.21.23.33.16.58.37.75.64.17.27.25.57.25.9,0,.41-.11.75-.34,1.03-.22.27-.52.46-.88.58.25.04.49.14.7.31ZM554.61,89.13h1.53c.43,0,.76-.1.99-.3s.35-.48.35-.83-.12-.63-.35-.83-.57-.3-1.01-.3h-1.51v2.26ZM557.28,92.02c.25-.21.38-.51.38-.89s-.13-.69-.4-.92-.62-.33-1.07-.33h-1.58v2.46h1.61c.45,0,.81-.11,1.06-.32Z"/>
    <path class="st1" d="M559.83,88.85c.23-.42.54-.75.94-.98s.84-.35,1.33-.35.9.1,1.25.31c.35.21.62.47.79.78v-1h.92v5.48h-.92v-1.02c-.18.32-.45.58-.81.79s-.77.31-1.25.31-.93-.12-1.32-.36c-.39-.24-.7-.58-.93-1.01-.23-.43-.34-.93-.34-1.48s.11-1.05.34-1.48ZM563.88,89.26c-.17-.31-.39-.54-.68-.71-.28-.16-.59-.25-.93-.25s-.65.08-.93.24c-.28.16-.5.39-.67.7-.17.31-.25.67-.25,1.08s.08.79.25,1.09c.17.31.39.55.67.71.28.16.59.25.93.25s.65-.08.93-.25c.28-.16.51-.4.68-.71.17-.31.25-.67.25-1.08s-.08-.77-.25-1.08Z"/>
    <path class="st1" d="M570.88,88.11c.41.4.62.98.62,1.74v3.23h-.9v-3.1c0-.55-.14-.97-.41-1.26-.27-.29-.65-.43-1.12-.43s-.86.15-1.14.45c-.28.3-.43.74-.43,1.31v3.03h-.91v-5.48h.91v.78c.18-.28.43-.5.74-.65s.65-.23,1.03-.23c.67,0,1.21.2,1.62.61Z"/>
    <path class="st1" d="M576.49,87.83c.36.21.62.47.79.78v-1h.92v5.6c0,.5-.11.95-.32,1.33s-.52.7-.92.92-.86.33-1.38.33c-.72,0-1.32-.17-1.8-.51-.48-.34-.76-.8-.85-1.39h.9c.1.33.31.6.62.81.31.2.69.3,1.13.3.5,0,.91-.16,1.22-.47.32-.31.48-.75.48-1.32v-1.15c-.18.32-.45.59-.8.8-.35.21-.77.32-1.24.32s-.93-.12-1.33-.36c-.4-.24-.71-.58-.94-1.01-.23-.43-.34-.93-.34-1.48s.11-1.05.34-1.48c.23-.42.54-.75.94-.98s.84-.35,1.33-.35.89.1,1.25.31ZM577.04,89.26c-.17-.31-.39-.54-.68-.71-.28-.16-.59-.25-.93-.25s-.65.08-.93.24c-.28.16-.5.39-.67.7-.17.31-.25.67-.25,1.08s.08.79.25,1.09c.17.31.39.55.67.71.28.16.59.25.93.25s.65-.08.93-.25c.28-.16.51-.4.68-.71.17-.31.25-.67.25-1.08s-.08-.77-.25-1.08Z"/>
    <path class="st1" d="M580.66,85.69v7.4h-.91v-7.4h.91Z"/>
    <path class="st1" d="M582.21,88.85c.23-.42.54-.75.94-.98s.84-.35,1.33-.35.9.1,1.25.31c.35.21.62.47.79.78v-1h.92v5.48h-.92v-1.02c-.18.32-.45.58-.81.79s-.77.31-1.25.31-.93-.12-1.32-.36c-.39-.24-.7-.58-.93-1.01-.23-.43-.34-.93-.34-1.48s.11-1.05.34-1.48ZM586.26,89.26c-.17-.31-.39-.54-.68-.71-.28-.16-.59-.25-.93-.25s-.65.08-.93.24c-.28.16-.5.39-.67.7-.17.31-.25.67-.25,1.08s.08.79.25,1.09c.17.31.39.55.67.71.28.16.59.25.93.25s.65-.08.93-.25c.28-.16.51-.4.68-.71.17-.31.25-.67.25-1.08s-.08-.77-.25-1.08Z"/>
    <path class="st1" d="M588.97,88.85c.23-.42.54-.75.94-.98s.84-.35,1.33-.35c.43,0,.82.1,1.19.29.37.2.65.46.84.78v-2.9h.92v7.4h-.92v-1.03c-.18.33-.45.6-.8.81-.35.21-.77.31-1.24.31s-.93-.12-1.33-.36c-.4-.24-.71-.58-.94-1.01-.23-.43-.34-.93-.34-1.48s.11-1.05.34-1.48ZM593.02,89.26c-.17-.31-.39-.54-.68-.71-.28-.16-.59-.25-.93-.25s-.65.08-.93.24c-.28.16-.5.39-.67.7-.17.31-.25.67-.25,1.08s.08.79.25,1.09c.17.31.39.55.67.71.28.16.59.25.93.25s.65-.08.93-.25c.28-.16.51-.4.68-.71.17-.31.25-.67.25-1.08s-.08-.77-.25-1.08Z"/>
    <path class="st1" d="M600.7,90.69h-4.38c.03.54.22.96.55,1.27.34.3.75.46,1.22.46.39,0,.72-.09.99-.28s.45-.43.55-.74h.98c-.15.53-.44.96-.88,1.29-.44.33-.99.5-1.64.5-.52,0-.98-.12-1.39-.35s-.73-.57-.96-1-.35-.93-.35-1.5.11-1.06.34-1.49.55-.75.96-.98c.41-.23.88-.35,1.42-.35s.98.11,1.38.34c.4.23.71.54.93.94.22.4.32.84.32,1.34,0,.17,0,.36-.03.55ZM599.56,89.05c-.15-.25-.36-.44-.62-.57-.26-.13-.55-.19-.88-.19-.46,0-.85.15-1.17.44-.32.29-.51.7-.55,1.22h3.46c0-.35-.08-.65-.23-.9Z"/>
    <path class="st1" d="M602.74,92.96c-.33-.14-.6-.34-.79-.6-.19-.26-.3-.55-.32-.89h.94c.03.27.16.5.38.67.23.17.53.26.91.26.35,0,.62-.08.82-.23.2-.15.3-.35.3-.58s-.11-.42-.32-.54c-.21-.12-.54-.23-.99-.34-.41-.11-.74-.21-1-.33-.26-.11-.48-.27-.66-.49-.18-.22-.28-.5-.28-.86,0-.28.08-.54.25-.77.17-.23.4-.42.71-.56s.66-.21,1.05-.21c.61,0,1.1.15,1.47.46.37.31.57.73.6,1.26h-.91c-.02-.29-.13-.52-.34-.69-.21-.17-.49-.26-.85-.26-.33,0-.59.07-.78.21-.19.14-.29.32-.29.55,0,.18.06.33.17.45s.26.21.44.28c.18.07.42.15.73.24.39.11.71.21.96.32.25.1.46.26.63.46.18.21.27.48.28.81,0,.3-.08.57-.25.81-.17.24-.4.43-.71.56s-.65.21-1.04.21c-.42,0-.8-.07-1.13-.21Z"/>
    <path class="st1" d="M610.99,87.77c.33.18.59.44.78.8.19.35.29.78.29,1.29v3.23h-.9v-3.1c0-.55-.14-.97-.41-1.26-.27-.29-.65-.43-1.12-.43s-.86.15-1.14.45c-.28.3-.43.74-.43,1.31v3.03h-.91v-7.4h.91v2.7c.18-.28.43-.5.75-.65s.67-.23,1.07-.23c.41,0,.79.09,1.12.26Z"/>
    <path class="st1" d="M613.4,92.97c-.12-.12-.18-.27-.18-.44s.06-.32.18-.44.27-.18.44-.18.31.06.43.18c.12.12.17.27.17.44s-.06.32-.17.44c-.12.12-.26.18-.43.18s-.32-.06-.44-.18Z"/>
    <path class="st1" d="M615.5,92.97c-.12-.12-.18-.27-.18-.44s.06-.32.18-.44.27-.18.44-.18.31.06.43.18c.12.12.17.27.17.44s-.06.32-.17.44c-.12.12-.26.18-.43.18s-.32-.06-.44-.18Z"/>
    <path class="st1" d="M617.6,92.97c-.12-.12-.18-.27-.18-.44s.06-.32.18-.44.27-.18.44-.18.31.06.43.18c.12.12.17.27.17.44s-.06.32-.17.44c-.12.12-.26.18-.43.18s-.32-.06-.44-.18Z"/>
  </g>
</svg>